HIERARCHY
ROOT Hips
{
     OFFSET 1.88212 96.90440 -13.34250
     CHANNELS 6 Xposition Yposition Zposition Zrotation Xrotation Yrotation
     JOINT Spine
     {
          OFFSET 0.00000 11.89050 0.00000
          CHANNELS 3 Zrotation Xrotation Yrotation
          JOINT Spine1
          {
               OFFSET -0.00000 25.65740 0.12766
               CHANNELS 3 Zrotation Xrotation Yrotation
               JOINT HEad
               {
                    OFFSET 0.00000 8.73416 0.01134
                    CHANNELS 3 Zrotation Xrotation Yrotation
                    End Site
                    {
                         OFFSET -0.29000 12.77420 2.51395
                    }
               }
               JOINT LeftShoulder1
               {
                    OFFSET 8.99000 -0.36225 -0.22000
                    CHANNELS 3 Zrotation Xrotation Yrotation
                    JOINT LeftArm
                    {
                         OFFSET 10.28270 -0.00338 0.32212
                         CHANNELS 3 Zrotation Xrotation Yrotation
                         JOINT LeftForeArm
                         {
                              OFFSET 32.76690 0.09914 -1.42434
                              CHANNELS 3 Zrotation Xrotation Yrotation
                              JOINT LeftHand
                              {
                                   OFFSET 27.56430 0.08536 1.02216
                                   CHANNELS 3 Zrotation Xrotation Yrotation
                                   End Site
                                   {
                                        OFFSET 16.74430 -0.60000 1.50291
                                   }
                              }
                         }
                    }
               }
               JOINT RightShoulder
               {
                    OFFSET -8.99000 -0.36225 -0.22000
                    CHANNELS 3 Zrotation Xrotation Yrotation
                    JOINT RightArm
                    {
                         OFFSET -10.28270 -0.00338 0.32212
                         CHANNELS 3 Zrotation Xrotation Yrotation
                         JOINT RightForeArm
                         {
                              OFFSET -32.89710 0.09914 -1.42434
                              CHANNELS 3 Zrotation Xrotation Yrotation
                              JOINT RightHand
                              {
                                   OFFSET -27.49210 0.08536 1.02216
                                   CHANNELS 3 Zrotation Xrotation Yrotation
                                   End Site
                                   {
                                        OFFSET -16.63120 -0.60000 1.50291
                                   }
                              }
                         }
                    }
               }
          }
     }
     JOINT LeftUpLeg
     {
          OFFSET 8.94580 -8.66707 0.10165
          CHANNELS 3 Zrotation Xrotation Yrotation
          JOINT LeftLeg
          {
               OFFSET 0.00000 -44.42270 1.37270
               CHANNELS 3 Zrotation Xrotation Yrotation
               JOINT LeftFoot
               {
                    OFFSET -0.25355 -42.09240 -1.46059
                    CHANNELS 3 Zrotation Xrotation Yrotation
                    JOINT LeftToes
                    {
                         OFFSET -0.04000 -4.41509 8.49910
                         CHANNELS 3 Zrotation Xrotation Yrotation
                         End Site
                         {
                              OFFSET 0.08000 -0.04745 9.77979
                         }
                    }
               }
          }
     }
     JOINT RightUpLeg
     {
          OFFSET -8.94580 -8.66707 0.10165
          CHANNELS 3 Zrotation Xrotation Yrotation
          JOINT RightLeg
          {
               OFFSET 0.00000 -44.42270 1.37270
               CHANNELS 3 Zrotation Xrotation Yrotation
               JOINT RightFoot
               {
                    OFFSET 0.25355 -42.09240 -1.46059
                    CHANNELS 3 Zrotation Xrotation Yrotation
                    JOINT RightToes
                    {
                         OFFSET 0.04000 -4.41509 8.49910
                         CHANNELS 3 Zrotation Xrotation Yrotation
                         End Site
                         {
                              OFFSET -0.08000 -0.13745 9.77979
                         }
                    }
               }
          }
     }
}
MOTION
Frames: 19
Frame Time: 0.01667
-329.43884 88.60507 330.49695 -14.77533 17.18551 -123.84266 2.21328 1.50580 13.58350 0.00659 -0.01050 -0.01264 -0.67897 12.10426 35.20800 2.71740 3.05996 -6.15434 -91.00479 -66.24876 -106.04862 -25.73012 35.24935 -82.74229 6.38521 9.83446 1.14086 26.35135 5.09608 4.16139 42.87899 -4.02198 62.95862 15.65294 18.64340 72.28379 -7.09320 7.48929 4.57223 14.75838 -7.05631 4.63789 3.15946 25.99723 12.42453 -12.80908 -0.23178 0.24411 1.26953 -9.56836 -3.44723 -15.03597 -2.15585 -12.21386 0.24137 51.45853 7.70207 12.10961 0.09361 0.83186 10.75030 10.21716 3.08719 
-327.96027 88.00029 331.67587 -14.77724 16.66519 -123.46339 1.88775 2.96004 13.77507 0.00583 -0.01076 -0.00910 -0.05346 16.90057 33.06377 2.95970 1.90996 -6.12957 -93.40703 -67.21777 -107.71049 -25.77653 36.09550 -83.06242 6.54948 9.72131 1.26757 25.86174 3.86935 4.40588 43.95954 -5.37274 63.66877 15.68664 19.22796 73.48428 -6.66686 7.92007 2.99634 13.60638 -8.49885 5.57411 3.83843 25.64080 10.80878 -9.95786 -0.00386 0.01655 -1.42613 -10.53374 -2.36398 -15.71906 -5.22802 -14.56717 -0.78873 58.83668 10.63803 31.08153 0.18080 0.73555 -13.76464 2.68465 4.48574 
-326.44415 87.37195 332.85001 -14.76670 16.03728 -122.91337 1.57677 4.20768 13.69265 0.00521 -0.00995 -0.00593 0.75030 21.16024 31.01722 3.19548 0.83280 -5.75730 -95.07792 -67.77148 -108.55637 -25.52288 36.59404 -83.34279 6.58478 9.62758 1.12234 25.47575 2.82097 4.85866 44.92842 -6.77763 64.32683 15.72973 19.74221 74.64438 -6.77955 7.90906 3.41300 12.38277 -9.84243 6.34144 4.97093 23.64171 9.57413 -14.50290 -0.12029 0.10480 2.89653 -9.53298 -1.95070 -15.89033 -7.76167 -15.61662 -0.10149 65.77202 12.57088 19.09954 -0.01715 -0.49955 -0.57142 1.16216 3.69876 
-324.88913 86.73987 334.03769 -14.74737 15.32699 -122.17998 1.30263 5.25728 13.36835 0.00472 -0.00991 -0.00276 1.72748 24.92639 29.02349 3.45921 -0.16912 -5.10492 -96.00480 -68.06816 -108.58530 -25.13849 36.79910 -83.56985 6.43771 9.55132 1.05145 25.20377 1.92850 5.50125 45.85185 -8.23706 64.92570 15.77702 20.23750 75.69120 -6.54654 8.08908 2.35167 11.05557 -11.00081 6.92107 6.14596 20.89382 9.29158 -12.34045 -0.10456 -0.02974 0.36839 -7.99289 -1.90925 -15.61718 -9.64802 -15.52429 1.71248 70.49949 13.85134 7.78653 0.42364 -0.46223 9.60638 -3.47197 1.70717 
-323.30707 86.09538 335.23013 -14.71327 14.56669 -121.26471 1.09306 6.11659 12.83717 0.00426 -0.00977 -0.00019 2.88003 28.23470 27.05587 3.76760 -1.07394 -4.27316 -96.27924 -68.24168 -107.93670 -24.73128 36.77251 -83.74773 6.20704 9.52093 0.75040 25.01880 1.18182 6.25058 46.81743 -9.70228 65.51526 15.82159 20.74290 76.63075 -6.64072 8.06222 2.52993 9.61187 -11.90994 7.30468 7.25736 17.52574 9.48727 -17.46882 -0.06361 0.16616 5.14814 -5.92008 -2.48051 -14.96683 -10.85758 -14.46926 4.78536 71.92308 12.67325 -2.60397 0.43129 -0.08415 22.93108 -3.72975 15.99785 
-321.71585 85.44088 336.42523 -14.65009 13.79787 -120.18797 0.98303 6.79472 12.14117 0.00402 -0.00933 0.00166 4.20647 31.11399 25.10322 4.12494 -1.85102 -3.36096 -96.06721 -68.38701 -106.83018 -24.37492 36.58554 -83.88931 5.91034 9.50960 0.44327 24.90838 0.57965 7.03308 47.88263 -11.12112 66.13380 15.84724 21.28805 77.45260 -6.54467 8.10594 1.83851 8.08746 -12.56715 7.50786 8.27543 13.90689 10.50502 -16.91652 -0.09242 0.01492 4.30329 -3.37859 -3.24560 -13.98054 -11.41178 -12.62118 8.07595 70.83828 10.40767 -12.24520 0.32026 0.11677 31.14252 -16.03114 21.06589 
-320.13153 84.80809 337.64148 -14.54147 13.06755 -118.98306 1.02029 7.30834 11.32503 0.00609 -0.00792 0.00322 5.68464 33.58218 23.16786 4.52433 -2.47855 -2.46189 -95.58369 -68.57019 -105.51572 -24.12601 36.30788 -84.01691 5.62919 9.48681 -0.03821 24.99709 0.13784 7.82664 53.05478 -13.18168 68.24524 15.96047 22.53933 80.36378 -3.02462 9.33531 -2.22417 6.51811 -12.97534 7.55799 9.23761 9.92691 11.90684 -22.39368 -0.02225 0.20243 9.53376 -0.58949 -4.54588 -12.67105 -11.37256 -10.13791 10.45801 68.08573 8.23469 -21.33224 0.21608 0.20416 35.10358 -22.14771 27.38849 
-318.56989 84.23960 338.90125 -14.37754 12.42531 -117.68784 1.24524 7.67815 10.42920 0.00634 -0.00635 0.00382 7.29263 35.65626 21.26831 4.95449 -2.93720 -1.65438 -95.05277 -68.82090 -104.23623 -24.01640 36.00795 -84.15870 5.40028 9.41365 -0.52296 25.20475 -0.15685 8.57497 56.67949 -14.64241 69.78175 15.94651 24.03728 81.87043 -1.22901 9.88085 -4.63488 4.95651 -13.16125 7.49364 10.12106 5.88703 13.97867 -22.57646 -0.07732 0.04129 9.49647 2.39418 -5.96572 -11.04178 -10.81895 -7.17449 11.54508 64.32254 6.48008 -30.10605 0.12995 0.23369 43.89169 -32.77375 32.38681 
-317.06189 83.76509 340.22571 -14.16928 11.91828 -116.34338 1.68954 7.93674 9.49173 0.00673 -0.00514 0.00344 8.99014 37.35848 19.43426 5.38368 -3.20517 -0.98401 -94.69748 -69.11819 -103.20801 -24.05721 35.75290 -84.35291 5.25344 9.23819 -1.06962 25.48213 -0.29978 9.17971 59.26587 -15.63922 70.93797 15.73803 25.63466 82.60719 -14.84725 4.99689 10.18089 3.50187 -13.30206 7.37263 10.56322 2.98795 15.06583 -21.89638 0.00416 -0.02270 8.65698 3.66952 -6.66832 -9.02319 -9.83385 -3.87013 9.44650 59.96361 6.66413 -30.06502 0.00948 0.00973 34.87723 -43.84739 22.91230 
-315.62524 83.38451 341.62378 -13.94688 11.58388 -114.98833 2.36293 8.12807 8.54421 0.00729 -0.00390 0.00201 11.83642 38.18032 18.19024 5.74354 -3.23621 -0.47476 -94.73907 -69.40462 -102.63931 -24.24160 35.61314 -84.63996 5.18017 8.90553 -1.50267 25.78792 -0.25503 9.51859 61.16623 -16.31377 71.87501 15.42906 27.19662 83.08237 -2.75826 9.78364 -3.19710 2.23908 -13.52392 7.24864 10.63518 0.79529 15.43835 -21.23839 0.00389 -0.01802 -1.28113 -7.49077 1.84854 -6.64379 -8.46832 -0.39727 7.24533 55.50459 5.89691 -30.00659 -0.00748 -0.00422 40.39169 -37.77903 22.06071 
-314.26437 83.11973 343.08942 -13.75166 11.44612 -113.65032 3.25764 8.29662 7.60056 0.00748 -0.00309 -0.00067 15.49207 38.22667 17.66160 5.99101 -2.99445 -0.13353 -95.32829 -69.60399 -102.62392 -24.55529 35.64600 -85.05163 5.17305 8.41162 -1.87447 26.02088 -0.01014 9.44809 62.67884 -16.82375 72.80406 15.27089 28.47958 83.76991 -11.34484 7.09506 6.04437 1.23072 -13.86752 7.15975 10.37856 -0.75480 15.29188 -19.91941 -0.00117 -0.01908 3.02819 -0.37293 -3.15436 -3.96112 -6.74832 3.02073 4.46430 51.20456 4.73223 -30.00278 -0.00934 -0.00351 19.89163 -39.72721 -5.55598 
-312.97757 82.97411 344.63641 -13.62799 11.49315 -112.36417 4.33526 8.48357 6.68327 0.00761 -0.00129 -0.00260 18.72141 38.18762 17.25337 6.12383 -2.47674 0.04639 -96.49577 -69.62905 -103.11612 -24.99669 35.88559 -85.58755 5.19446 7.78999 -2.10495 26.34255 0.46563 9.11290 63.84166 -17.25089 73.61587 15.15809 29.83426 84.46918 -4.09320 9.57365 -2.06277 0.64315 -14.51758 7.18450 8.94949 -0.16974 14.83128 -17.76375 -0.02558 0.00351 -0.17230 -4.43607 -1.99070 -1.68502 -5.60963 5.93824 1.61918 48.08828 3.60919 -30.00355 -0.00959 -0.00380 33.31377 -37.70790 4.94164 
-311.75269 82.93582 346.27518 -13.61369 11.69860 -111.15909 5.55120 8.72261 5.80170 0.00764 0.00018 -0.00516 21.53602 38.11715 16.96617 6.13328 -1.71599 0.05305 -98.04617 -69.42100 -103.88020 -25.54100 36.35101 -86.23599 5.24016 7.11912 -2.25830 26.68211 1.12441 8.44439 64.75005 -17.65406 74.32143 15.21067 31.03400 85.45039 -9.44932 8.24801 3.29883 0.51408 -15.58659 7.36650 7.13174 2.00717 14.07176 -15.27907 -0.03666 0.02726 -0.00423 -4.80404 -4.06994 0.25342 -4.91948 8.43322 -1.14015 45.99251 2.53843 -30.00421 -0.00901 -0.00409 30.19051 -36.57048 -2.37522 
-310.58313 83.00234 347.98721 -13.73042 12.04888 -110.05112 6.87650 9.04247 4.95092 0.00742 0.00195 -0.00711 23.96538 38.05686 16.78766 6.09831 -0.78779 -0.10700 -99.71196 -68.98074 -104.67074 -31.66736 39.04232 -85.52023 7.46717 10.81374 -0.69684 27.12771 1.90219 7.56398 65.33488 -18.06221 74.76847 15.32519 32.22971 86.48876 -4.97702 9.52170 -1.91501 0.79410 -17.14193 7.71164 5.31263 5.49131 13.23316 -12.87863 -0.03001 0.04764 -1.69739 -7.67335 -4.56901 1.87017 -4.67188 10.54833 -3.89969 44.82402 1.75172 -30.00120 -0.00621 -0.00004 35.15534 -35.58720 -0.42936 
-309.44324 83.16609 349.72693 -13.97003 12.52808 -109.04779 8.28372 9.44528 4.11229 0.00733 0.00213 -0.00917 26.04532 38.03943 16.70780 6.05729 0.23084 -0.45686 -101.15017 -68.31976 -105.25806 -41.58629 42.06205 -82.69195 2.09643 0.66384 -4.32492 27.62104 2.71116 6.47256 65.62382 -18.52152 74.93365 15.55153 33.22652 87.67640 -8.26958 9.18084 1.01282 1.38404 -19.06116 8.19893 3.93542 10.46899 12.28982 -11.07234 -0.02225 0.04956 -2.31725 -9.91948 -5.65264 3.01852 -4.74651 12.28827 -4.23940 44.47866 -1.33687 -30.01207 -0.00922 0.00627 35.73793 -34.66614 -0.98943 
-308.29956 83.41238 351.44781 -14.30194 13.12107 -108.16370 9.74319 9.90681 3.28686 0.00681 0.00386 -0.01089 27.82263 38.08044 16.70464 6.07143 1.28647 -0.58582 -96.53764 -63.97195 -99.14616 -41.81726 42.94929 -83.51225 10.29463 18.24455 1.34414 28.17251 3.49175 5.25584 65.61014 -19.02854 74.76176 15.78912 34.09339 88.82043 -5.46671 9.81409 -2.44004 2.19436 -21.30705 8.80351 3.16847 16.42211 11.12186 -9.88445 -0.01005 0.03825 -3.04091 -12.69143 -6.13957 3.59515 -5.02443 13.66005 -2.79319 44.33016 -5.85518 -30.00949 -0.00581 0.00494 37.76640 -33.56043 1.66649 
-307.08981 83.75090 353.18427 -14.67756 13.76650 -107.40380 11.18682 10.39023 2.46313 0.00624 0.00581 -0.01253 29.31444 38.17194 16.78351 6.08232 2.35268 -0.60501 -91.08333 -57.33882 -92.33786 -36.46489 42.24851 -86.77228 -2.60736 -5.52780 -7.28748 28.67865 4.20080 3.94512 65.38925 -19.58697 74.31097 16.05815 34.71442 89.92320 -7.37573 10.01020 -0.82301 3.25381 -23.51294 9.53732 4.00218 25.43316 8.64671 3.27455 0.09248 0.68736 -17.32496 -17.32706 -7.49673 3.54402 -5.11356 13.56515 -3.13904 43.71762 -7.37158 -29.45008 0.01010 -0.00214 38.94015 -32.04939 3.01232 
-305.75928 84.20057 355.02524 -15.03895 14.40029 -106.78747 13.27823 11.80557 0.85785 0.05966 0.08206 -0.06224 28.85080 37.75156 18.37095 5.14692 2.47757 -0.25987 -88.93886 -53.56623 -89.57899 -33.40969 41.17471 -88.85072 11.14975 5.75987 -4.60456 28.00705 4.25814 3.91836 65.29827 -23.29163 71.02584 17.51709 36.91018 93.43433 -5.60540 10.24779 -2.98647 4.41139 -25.56089 10.33747 7.08737 34.31184 4.68000 -6.04443 -0.20151 -0.44307 -9.81606 -21.73659 -7.02358 3.15530 -5.01895 12.20639 -4.28659 42.68484 -6.91288 -29.11904 0.00544 -0.00368 40.55015 -30.25977 4.44318 
-304.29361 84.76379 357.03217 -15.33701 14.97379 -106.35155 15.76297 13.89929 -1.59072 0.04300 0.07616 -0.07384 26.97050 37.04026 21.26223 3.64355 1.94130 0.45950 -87.94508 -51.58341 -88.36767 -31.52425 40.54555 -90.36917 0.44949 0.54841 -4.40042 26.70226 3.94714 4.55934 65.23086 -25.12670 69.12826 17.48151 36.27015 91.21249 -5.48090 9.45299 2.72179 5.55571 -27.40307 11.14996 12.99588 42.31589 -1.87604 -5.78495 -0.04665 -0.01096 -5.38891 -12.18500 -11.97601 2.56418 -4.80371 9.77176 -6.04719 41.00077 -4.83183 -29.03989 0.00193 -0.00178 41.95755 -28.02820 5.21850 
